{"asset":{"version":"2.0","generator":"VECTARY"},"nodes":[{"translation":[-3.469446951953614e-20,-0.005,-8.881784197001253e-19],"scale":[0.0011001549999999998,0.0011005319999999998,0.0007222222222222222],"rotation":[-0.015336901339188778,0.706940435579485,0.7069404355794852,0.015336901339188783],"name":"Box - baked","mesh":0}],"materials":[{"pbrMetallicRoughness":{"baseColorFactor":[0.6120655998656237,0.6120655998656237,0.6120655998656237,1],"metallicFactor":0,"roughnessFactor":0.2},"name":"Monarch","emissiveFactor":[0,0,0],"alphaMode":"OPAQUE","doubleSided":false}],"meshes":[{"primitives":[{"mode":4,"attributes":{"POSITION":1,"NORMAL":2},"material":0,"indices":0}]}],"accessors":[{"bufferView":0,"byteOffset":0,"componentType":5125,"count":2916,"type":"SCALAR"},{"bufferView":1,"byteOffset":0,"componentType":5126,"count":488,"max":[50.31108474731445,21.43964958190918,36],"min":[-50.31108474731445,-21.43964958190918,-2.443424867579709e-24],"type":"VEC3"},{"bufferView":2,"byteOffset":0,"componentType":5126,"count":488,"type":"VEC3"}],"bufferViews":[{"buffer":0,"byteOffset":0,"byteLength":11664,"target":34963},{"buffer":0,"byteOffset":11664,"byteLength":5856,"target":34962},{"buffer":0,"byteOffset":17520,"byteLength":5856,"target":34962}],"scene":0,"scenes":[{"nodes":[0],"name":"Project Name"}],"extensionsUsed":["KHR_texture_transform"],"buffers":[{"byteLength":23376,"uri":"ProjectName.bin"}]}